<svg width="257" height="87" viewBox="0 0 257 87" fill="none" xmlns="http://www.w3.org/2000/svg">
<path d="M93.5855 18.5126C97.0026 18.5126 99.8752 19.1885 102.203 20.5403C104.569 21.8921 106.371 23.9573 107.611 26.7361L105.245 28.5385C104.156 25.91 102.616 24.0137 100.626 22.8496C98.6736 21.6856 96.2516 21.1035 93.3602 21.1035C91.1448 21.1035 89.2673 21.4603 87.7277 22.1737C86.1881 22.8496 85.0053 23.7696 84.1792 24.9337C83.3906 26.0602 82.9964 27.3369 82.9964 28.7638C82.9964 30.4911 83.5596 31.918 84.6861 33.0445C85.8126 34.171 87.8779 35.0722 90.8819 35.7481L98.2042 37.3253C101.847 38.1138 104.4 39.2591 105.864 40.7611C107.367 42.2256 108.118 44.1219 108.118 46.45C108.118 48.4777 107.517 50.2801 106.315 51.8572C105.151 53.4343 103.536 54.6547 101.471 55.5184C99.4058 56.382 96.9838 56.8139 94.2051 56.8139C91.5391 56.8139 89.1546 56.4571 87.0518 55.7437C84.9865 54.9927 83.2404 53.96 81.8135 52.6458C80.3866 51.294 79.3352 49.6793 78.6593 47.8018L81.1376 45.8867C81.6633 47.6516 82.527 49.1724 83.7286 50.4491C84.9678 51.6882 86.4885 52.627 88.291 53.2654C90.0934 53.9037 92.1023 54.2229 94.3178 54.2229C96.4206 54.2229 98.2981 53.9413 99.9503 53.378C101.603 52.7772 102.879 51.9136 103.78 50.787C104.719 49.6605 105.189 48.2712 105.189 46.619C105.189 45.0418 104.625 43.7088 103.499 42.6198C102.41 41.5309 100.457 40.7048 97.641 40.1415L89.9807 38.4518C87.615 37.9261 85.7 37.2314 84.2355 36.3677C82.7711 35.5041 81.7009 34.4714 81.025 33.2698C80.3866 32.0307 80.0674 30.6413 80.0674 29.1017C80.0674 27.1867 80.6119 25.4406 81.7009 23.8635C82.7898 22.2488 84.3482 20.9533 86.3759 19.977C88.4036 19.0007 90.8068 18.5126 93.5855 18.5126ZM116.124 56.2506V15.133H118.94V33.8331C119.766 31.8429 121.099 30.3033 122.939 29.2144C124.779 28.0879 126.901 27.5246 129.304 27.5246C131.407 27.5246 133.265 27.9189 134.88 28.7075C136.495 29.4585 137.753 30.6225 138.654 32.1996C139.593 33.7392 140.062 35.6543 140.062 37.9448V56.2506H137.246V38.846C137.246 35.8045 136.476 33.5702 134.936 32.1433C133.434 30.6789 131.463 29.9466 129.022 29.9466C127.257 29.9466 125.605 30.3597 124.066 31.1858C122.564 32.0119 121.324 33.1947 120.348 34.7343C119.409 36.2738 118.94 38.1514 118.94 40.3668V56.2506H116.124ZM149.787 56.2506V28.0879H152.153L152.491 34.0021C153.204 32.0119 154.349 30.4348 155.926 29.2707C157.503 28.1067 159.4 27.5246 161.615 27.5246C162.366 27.5246 163.042 27.5997 163.643 27.7499C164.244 27.9001 164.732 28.1442 165.107 28.4822L164.488 30.9605C164.075 30.6976 163.624 30.4911 163.136 30.3409C162.648 30.1907 161.916 30.1156 160.939 30.1156C159.512 30.1156 158.161 30.5662 156.884 31.4674C155.607 32.3311 154.575 33.5515 153.786 35.1286C152.997 36.6681 152.603 38.4518 152.603 40.4795V56.2506H149.787ZM187.594 37.7195C187.594 35.2788 186.937 33.3825 185.623 32.0307C184.309 30.6789 182.431 30.0029 179.991 30.0029C177.85 30.0029 176.01 30.4723 174.471 31.4111C172.931 32.3123 171.786 33.8331 171.035 35.9734L168.725 34.509C169.552 32.2935 170.922 30.585 172.837 29.3834C174.79 28.1442 177.193 27.5246 180.047 27.5246C182.112 27.5246 183.915 27.9001 185.454 28.6511C187.031 29.3646 188.252 30.4348 189.115 31.8617C189.979 33.2886 190.411 35.0722 190.411 37.2126V51.294C190.411 53.2841 191.312 54.2792 193.114 54.2792C193.903 54.2792 194.579 54.1478 195.142 53.8849L194.973 56.138C194.335 56.4759 193.509 56.6449 192.495 56.6449C191.631 56.6449 190.824 56.4759 190.073 56.138C189.322 55.8 188.702 55.2368 188.214 54.4482C187.763 53.6596 187.538 52.5895 187.538 51.2376V49.7169L188.327 49.6605C187.989 51.2752 187.238 52.627 186.074 53.716C184.947 54.7674 183.633 55.5559 182.131 56.0816C180.629 56.5698 179.127 56.8139 177.625 56.8139C175.86 56.8139 174.283 56.5322 172.894 55.969C171.504 55.4057 170.415 54.5984 169.627 53.547C168.838 52.458 168.444 51.125 168.444 49.5479C168.444 47.4451 169.139 45.7553 170.528 44.4786C171.955 43.1643 173.945 42.2631 176.498 41.775L188.158 39.4656V41.8313L177.907 43.859C175.691 44.3096 174.039 44.9667 172.95 45.8304C171.861 46.6941 171.316 47.8769 171.316 49.3789C171.316 50.9185 171.898 52.1389 173.063 53.0401C174.227 53.9037 175.879 54.3355 178.019 54.3355C179.108 54.3355 180.216 54.1853 181.342 53.8849C182.469 53.5845 183.502 53.1152 184.44 52.4768C185.417 51.8009 186.186 50.9748 186.75 49.9985C187.313 48.9846 187.594 47.7642 187.594 46.3373V37.7195ZM224.261 22.9059L224.937 25.3843C224.899 25.3843 224.861 25.3843 224.824 25.3843C224.786 25.3843 224.73 25.3843 224.655 25.3843C222.815 25.3843 221.388 25.8724 220.374 26.8487C219.398 27.7875 218.91 29.1205 218.91 30.8478L217.107 29.9466C217.107 28.5197 217.408 27.2806 218.008 26.2291C218.609 25.1777 219.435 24.3704 220.487 23.8071C221.538 23.2063 222.721 22.9059 224.035 22.9059C224.11 22.9059 224.148 22.9059 224.148 22.9059C224.186 22.9059 224.223 22.9059 224.261 22.9059ZM215.361 53.378C218.14 53.378 220.318 53.96 221.895 55.1241C223.472 56.2882 224.261 57.8465 224.261 59.7991C224.261 61.5264 223.679 63.0284 222.515 64.3052C221.388 65.5819 219.83 66.5769 217.84 67.2904C215.849 68.0039 213.578 68.3606 211.024 68.3606C206.781 68.3606 203.533 67.6284 201.28 66.1639C199.027 64.737 197.9 62.9346 197.9 60.7566C197.9 59.1795 198.464 57.8089 199.59 56.6449C200.754 55.4808 202.444 54.7861 204.659 54.5608L204.434 55.0678C203.232 54.7298 202.162 54.1666 201.223 53.378C200.322 52.5895 199.872 51.4629 199.872 49.9985C199.872 48.4214 200.454 47.1447 201.618 46.1684C202.819 45.1545 204.396 44.5725 206.349 44.4223L209.334 45.4361H208.152C206.424 45.5488 205.035 45.9806 203.983 46.7316C202.97 47.4451 202.463 48.3838 202.463 49.5479C202.463 50.8246 202.951 51.7821 203.927 52.4205C204.941 53.0588 206.218 53.378 207.757 53.378H215.361ZM211.024 65.9949C213.24 65.9949 215.136 65.7321 216.713 65.2064C218.29 64.6807 219.492 63.9672 220.318 63.066C221.181 62.2023 221.613 61.226 221.613 60.1371C221.613 58.8228 221.031 57.7714 219.867 56.9828C218.741 56.1943 217.013 55.8 214.685 55.8H206.687C204.922 55.8 203.458 56.2131 202.294 57.0392C201.13 57.8653 200.548 58.973 200.548 60.3624C200.548 62.0521 201.468 63.4039 203.308 64.4178C205.185 65.4692 207.757 65.9949 211.024 65.9949ZM210.63 27.5246C212.845 27.5246 214.798 27.9189 216.488 28.7075C218.215 29.4585 219.548 30.5287 220.487 31.918C221.426 33.2698 221.895 34.8657 221.895 36.7057C221.895 38.5081 221.426 40.1228 220.487 41.5497C219.548 42.939 218.215 44.028 216.488 44.8165C214.798 45.5675 212.845 45.9431 210.63 45.9431C207.063 45.9431 204.265 45.0982 202.237 43.4084C200.247 41.6811 199.252 39.4468 199.252 36.7057C199.252 34.8657 199.721 33.2698 200.66 31.918C201.637 30.5287 202.97 29.4585 204.659 28.7075C206.387 27.9189 208.377 27.5246 210.63 27.5246ZM210.63 29.834C208.152 29.834 206.124 30.4723 204.547 31.749C202.97 32.9882 202.181 34.6404 202.181 36.7057C202.181 38.7709 202.97 40.4419 204.547 41.7186C206.124 42.9954 208.152 43.6337 210.63 43.6337C213.108 43.6337 215.117 42.9954 216.657 41.7186C218.234 40.4419 219.022 38.7709 219.022 36.7057C219.022 34.6404 218.234 32.9882 216.657 31.749C215.117 30.4723 213.108 29.834 210.63 29.834ZM247.165 37.7195C247.165 35.2788 246.508 33.3825 245.194 32.0307C243.88 30.6789 242.002 30.0029 239.561 30.0029C237.421 30.0029 235.581 30.4723 234.041 31.4111C232.502 32.3123 231.357 33.8331 230.606 35.9734L228.296 34.509C229.122 32.2935 230.493 30.585 232.408 29.3834C234.361 28.1442 236.764 27.5246 239.618 27.5246C241.683 27.5246 243.485 27.9001 245.025 28.6511C246.602 29.3646 247.822 30.4348 248.686 31.8617C249.55 33.2886 249.982 35.0722 249.982 37.2126V51.294C249.982 53.2841 250.883 54.2792 252.685 54.2792C253.474 54.2792 254.15 54.1478 254.713 53.8849L254.544 56.138C253.906 56.4759 253.079 56.6449 252.066 56.6449C251.202 56.6449 250.395 56.4759 249.644 56.138C248.893 55.8 248.273 55.2368 247.785 54.4482C247.334 53.6596 247.109 52.5895 247.109 51.2376V49.7169L247.897 49.6605C247.56 51.2752 246.809 52.627 245.644 53.716C244.518 54.7674 243.204 55.5559 241.702 56.0816C240.2 56.5698 238.698 56.8139 237.196 56.8139C235.431 56.8139 233.854 56.5322 232.464 55.969C231.075 55.4057 229.986 54.5984 229.197 53.547C228.409 52.458 228.015 51.125 228.015 49.5479C228.015 47.4451 228.709 45.7553 230.099 44.4786C231.526 43.1643 233.516 42.2631 236.069 41.775L247.729 39.4656V41.8313L237.477 43.859C235.262 44.3096 233.61 44.9667 232.521 45.8304C231.432 46.6941 230.887 47.8769 230.887 49.3789C230.887 50.9185 231.469 52.1389 232.633 53.0401C233.797 53.9037 235.45 54.3355 237.59 54.3355C238.679 54.3355 239.787 54.1853 240.913 53.8849C242.04 53.5845 243.072 53.1152 244.011 52.4768C244.987 51.8009 245.757 50.9748 246.32 49.9985C246.884 48.9846 247.165 47.7642 247.165 46.3373V37.7195Z" fill="#101010"/>
<path d="M0.755859 55.4832C2.61567 56.5164 5.92199 56.723 7.57516 55.8276C6.50336 60.4475 10.1916 70.3305 14.2178 74.1998C14.4792 71.2194 16.1165 70.0172 16.1165 70.0172C18.0227 79.9484 25.4376 78.9854 29.2059 86.6214C36.0617 82.7852 40.8101 76.848 42.2959 70.0172C42.2959 70.0172 43.9332 71.2194 44.1947 74.1998C48.2209 70.3305 51.9091 60.4475 50.8373 55.8276C52.4904 56.723 55.7968 56.5164 57.6566 55.4832C55.0815 52.9081 52.5064 48.7503 50.8542 43.7385C44.4917 47.1746 35.6195 48.2417 29.2059 44.4053C22.7925 48.2417 13.9207 47.1746 7.55824 43.7385C5.90609 48.7503 3.33098 52.9081 0.755859 55.4832Z" fill="#1F1F1F"/>
<path d="M18.113 28.5066C13.9802 30.642 11.3627 36.2903 3.5101 32.9153C3.5101 38.0812 11.4316 41.8503 15.909 42.4899C20.3863 43.1295 30.443 43.1097 30.6497 34.7749C30.8563 26.4401 22.2459 26.3713 18.113 28.5066Z" fill="#1F1F1F"/>
<path d="M40.2981 28.5066C44.431 30.642 47.0484 36.2903 54.901 32.9153C54.901 38.0812 46.9795 41.8503 42.5022 42.4899C38.0248 43.1295 27.9681 43.1097 27.7615 34.7749C27.5548 26.4401 36.1653 26.3713 40.2981 28.5066Z" fill="#1F1F1F"/>
<circle cx="45.9625" cy="12.7025" r="11.0211" stroke="#101010" stroke-width="1.815"/>
<path d="M59.6526 11.8064H57.4316" stroke="#101010" stroke-width="2.662" stroke-linecap="round"/>
<circle cx="11.0211" cy="11.0211" r="11.0211" transform="matrix(-1 0 0 1 26.958 1.6814)" stroke="#101010" stroke-width="1.815"/>
<path d="M2.24683 11.8064H4.46777" stroke="#101010" stroke-width="2.662" stroke-linecap="round"/>
<path d="M27.815 12.5347C27.7998 11.4391 27.6364 10.3793 27.3438 9.37455C28.3439 8.54695 29.5752 8.03957 30.9488 8.03957C32.3291 8.03957 33.5658 8.55196 34.5685 9.3868C34.275 10.3972 34.1122 11.4633 34.0997 12.5655C33.3501 11.2164 32.1575 10.4596 30.9488 10.4596C29.7492 10.4596 28.5656 11.2049 27.815 12.5347Z" fill="#101010"/>
</svg>
