<svg xmlns="http://www.w3.org/2000/svg" width="257" height="87" fill="none" viewBox="0 0 257 87" class="logo_src-components-HomepageHero-styles-module" role="img"><path fill="#FFFFFF" d="M93.586 18.513q5.126 0 8.617 2.027 3.549 2.028 5.408 6.196l-2.366 1.802q-1.634-3.942-4.619-5.688-2.928-1.746-7.266-1.747-3.323 0-5.632 1.07-2.31 1.015-3.549 2.76-1.183 1.69-1.183 3.83 0 2.592 1.69 4.281 1.69 1.69 6.196 2.704l7.322 1.577q5.464 1.183 7.66 3.436 2.254 2.197 2.254 5.689 0 3.042-1.803 5.407-1.746 2.366-4.844 3.661-3.097 1.296-7.266 1.296-3.999 0-7.153-1.07-3.098-1.127-5.239-3.098a12.3 12.3 0 0 1-3.154-4.844l2.479-1.915q.788 2.647 2.59 4.562 1.86 1.86 4.563 2.816 2.703.958 6.027.958 3.154 0 5.632-.845 2.479-.9 3.83-2.591 1.409-1.69 1.409-4.168 0-2.365-1.69-4-1.634-1.632-5.858-2.477l-7.66-1.69q-3.549-.788-5.745-2.084t-3.211-3.098q-.958-1.86-.958-4.168 0-2.872 1.634-5.239 1.633-2.422 4.675-3.886t7.21-1.464m22.538 37.738V15.133h2.816v18.7q1.239-2.985 3.999-4.619 2.76-1.69 6.365-1.69 3.154 0 5.576 1.183 2.423 1.127 3.774 3.493 1.408 2.31 1.408 5.745V56.25h-2.816V38.846q0-4.562-2.31-6.703-2.253-2.196-5.914-2.196a10.3 10.3 0 0 0-4.956 1.239q-2.254 1.24-3.718 3.548-1.408 2.31-1.408 5.633V56.25zm33.663 0V28.088h2.366l.338 5.914q1.07-2.985 3.435-4.731t5.689-1.746a8.4 8.4 0 0 1 2.028.225q.901.225 1.464.732l-.619 2.479a5.5 5.5 0 0 0-1.352-.62q-.732-.225-2.197-.225-2.14 0-4.055 1.351-1.915 1.296-3.098 3.662-1.183 2.31-1.183 5.35v15.772zm37.807-18.531q0-3.661-1.971-5.69-1.971-2.027-5.632-2.027-3.211 0-5.52 1.408-2.31 1.352-3.436 4.562l-2.31-1.464q1.24-3.323 4.112-5.126 2.93-1.858 7.21-1.858 3.098 0 5.407 1.126 2.366 1.071 3.661 3.21 1.296 2.141 1.296 5.352v14.081q0 2.985 2.703 2.985 1.184 0 2.028-.394l-.169 2.253q-.957.507-2.478.507a5.8 5.8 0 0 1-2.422-.507q-1.127-.507-1.859-1.69-.676-1.182-.676-3.21v-1.521l.789-.056q-.507 2.421-2.253 4.055a11.1 11.1 0 0 1-3.943 2.366 14.5 14.5 0 0 1-4.506.732q-2.648 0-4.731-.845-2.085-.844-3.267-2.422-1.183-1.633-1.183-4 0-3.153 2.084-5.068 2.14-1.972 5.97-2.704l11.66-2.31v2.366l-10.251 2.028q-3.324.676-4.957 1.971-1.634 1.296-1.634 3.549 0 2.31 1.747 3.661 1.746 1.296 4.956 1.296 1.634 0 3.323-.451 1.69-.45 3.098-1.408a7.64 7.64 0 0 0 2.31-2.478q.844-1.521.844-3.662zm36.667-14.814.676 2.478h-.282q-2.76 0-4.281 1.465-1.464 1.408-1.464 3.999l-1.803-.901q0-2.14.901-3.718a6.15 6.15 0 0 1 2.479-2.422q1.577-.9 3.548-.901h.226m-8.9 30.472q4.168 0 6.534 1.746t2.366 4.675q0 2.591-1.746 4.506-1.69 1.915-4.675 2.985-2.986 1.07-6.816 1.07-6.364 0-9.744-2.196-3.38-2.141-3.38-5.407 0-2.367 1.69-4.112 1.746-1.746 5.069-2.084l-.225.507a8.5 8.5 0 0 1-3.211-1.69q-1.351-1.182-1.351-3.38 0-2.365 1.746-3.83 1.802-1.521 4.731-1.746l2.985 1.014h-1.182q-2.591.17-4.169 1.296-1.52 1.07-1.52 2.816 0 1.915 1.464 2.872 1.521.958 3.83.958zm-4.337 12.617q3.324 0 5.689-.789 2.366-.788 3.605-2.14 1.295-1.296 1.295-2.929 0-1.971-1.746-3.154-1.69-1.183-5.182-1.183h-7.998q-2.647 0-4.393 1.24-1.746 1.238-1.746 3.322 0 2.535 2.76 4.056 2.816 1.577 7.716 1.577m-.394-38.47q3.323 0 5.858 1.183 2.59 1.125 3.999 3.21 1.408 2.028 1.408 4.788 0 2.703-1.408 4.844-1.408 2.084-3.999 3.267-2.535 1.126-5.858 1.126-5.35 0-8.393-2.535-2.985-2.59-2.985-6.702 0-2.76 1.408-4.788 1.466-2.085 3.999-3.21 2.592-1.184 5.971-1.183m0 2.309q-3.717 0-6.083 1.915-2.366 1.859-2.366 4.957t2.366 5.013 6.083 1.915 6.027-1.915q2.365-1.916 2.365-5.013 0-3.099-2.365-4.957-2.31-1.915-6.027-1.915m36.535 7.885q0-3.66-1.971-5.688t-5.633-2.028q-3.21 0-5.52 1.408-2.308 1.352-3.435 4.562l-2.31-1.464q1.24-3.323 4.112-5.126 2.93-1.858 7.21-1.858 3.097 0 5.407 1.126 2.365 1.071 3.661 3.21 1.296 2.141 1.296 5.352v14.081q0 2.985 2.703 2.985 1.184 0 2.028-.394l-.169 2.253q-.958.507-2.478.507a5.8 5.8 0 0 1-2.422-.507q-1.127-.507-1.859-1.69-.676-1.182-.676-3.21v-1.521l.788-.056q-.505 2.421-2.253 4.055a11.1 11.1 0 0 1-3.942 2.366 14.5 14.5 0 0 1-4.506.732q-2.647 0-4.732-.845-2.084-.844-3.267-2.422-1.182-1.633-1.182-4 0-3.153 2.084-5.068 2.14-1.972 5.97-2.704l11.66-2.31v2.366l-10.252 2.028q-3.322.676-4.956 1.971-1.634 1.296-1.634 3.549 0 2.31 1.746 3.661 1.746 1.296 4.957 1.296 1.634 0 3.323-.451 1.69-.45 3.098-1.408a7.6 7.6 0 0 0 2.309-2.478q.846-1.521.845-3.662z"></path><path fill="#FFFFFF" d="M.756 55.483c1.86 1.033 5.166 1.24 6.82.345-1.073 4.62 2.616 14.502 6.642 18.372.261-2.98 1.898-4.183 1.898-4.183 1.907 9.931 9.322 8.968 13.09 16.604 6.856-3.836 11.604-9.773 13.09-16.604 0 0 1.637 1.202 1.899 4.183 4.026-3.87 7.714-13.753 6.642-18.372 1.653.895 4.96.688 6.82-.345-2.575-2.575-5.15-6.733-6.803-11.744-6.362 3.436-15.234 4.503-21.648.666-6.413 3.837-15.285 2.77-21.648-.666-1.652 5.011-4.227 9.17-6.802 11.744M18.113 28.507c-4.133 2.135-6.75 7.783-14.603 4.408 0 5.166 7.922 8.935 12.399 9.575s14.534.62 14.74-7.715c.207-8.335-8.403-8.404-12.536-6.268"></path><path fill="#FFFFFF" d="M40.298 28.507c4.133 2.135 6.75 7.783 14.603 4.408 0 5.166-7.922 8.935-12.399 9.575s-14.534.62-14.74-7.715c-.207-8.335 8.403-8.404 12.536-6.268"></path><circle cx="45.962" cy="12.703" r="11.021" stroke="#FFFFFF" stroke-width="1.815"></circle><path stroke="#FFFFFF" stroke-linecap="round" stroke-width="2.662" d="M59.653 11.806h-2.221"></path><circle cx="11.021" cy="11.021" r="11.021" stroke="#FFFFFF" stroke-width="1.815" transform="matrix(-1 0 0 1 26.958 1.681)"></circle><path stroke="#FFFFFF" stroke-linecap="round" stroke-width="2.662" d="M2.247 11.806h2.22"></path><path fill="#FFFFFF" d="M27.815 12.535a11.9 11.9 0 0 0-.471-3.16c1-.828 2.231-1.335 3.605-1.335 1.38 0 2.617.512 3.62 1.347a11.9 11.9 0 0 0-.47 3.178c-.749-1.349-1.941-2.105-3.15-2.105-1.2 0-2.383.745-3.134 2.075"></path></svg>